<svg xmlns="http://www.w3.org/2000/svg" width="400" height="400" viewBox="0 0 400 400" fill="none">
  <rect width="400" height="400" fill="#10b981" opacity="0.2"/>
  <path d="M200 100C155.8 100 120 135.8 120 180C120 224.2 155.8 260 200 260C244.2 260 280 224.2 280 180C280 135.8 244.2 100 200 100ZM200 240C166.92 240 140 213.08 140 180C140 146.92 166.92 120 200 120C233.08 120 260 146.92 260 180C260 213.08 233.08 240 200 240Z" fill="#10b981"/>
  <path d="M200 160C188.95 160 180 168.95 180 180C180 191.05 188.95 200 200 200C211.05 200 220 191.05 220 180C220 168.95 211.05 160 200 160Z" fill="#10b981"/>
  <path d="M200 140C177.93 140 160 157.93 160 180C160 202.07 177.93 220 200 220C222.07 220 240 202.07 240 180C240 157.93 222.07 140 200 140ZM200 200C188.95 200 180 191.05 180 180C180 168.95 188.95 160 200 160C211.05 160 220 168.95 220 180C220 191.05 211.05 200 200 200Z" fill="#10b981"/>
</svg>